<?xml version="1.0" encoding="iso-8859-1"?>
<!-- Generator: Adobe Illustrator 19.0.0, SVG Export Plug-In . SVG Version: 6.00 Build 0)  -->
<svg version="1.1" id="Capa_1" xmlns="http://www.w3.org/2000/svg" xmlns:xlink="http://www.w3.org/1999/xlink" x="0px" y="0px"
	 viewBox="0 0 512 512" style="enable-background:new 0 0 512 512;" xml:space="preserve">
<path style="fill:#8078BF;" d="M478.919,106.573C244.253,59.118,258.367,61.801,256,61.801c-0.007,0-0.015,0.001-0.022,0.001
	c-2.734,0.004,11.319-2.608-216.426,44.788c-7.052,1.47-12.105,7.685-12.105,14.889v332.904c0,9.536,8.696,16.733,18.068,14.937
	L206.008,438.6c20.062,41.811,79.654,40.965,99.156-0.64c0.009-0.02,0.019-0.04,0.029-0.06l167.914,31.432
	c9.371,1.751,18.007-5.45,18.007-14.949V121.479C491.114,114.242,486.014,108.008,478.919,106.573z"/>
<path style="fill:#5F55AF;" d="M478.916,106.575C243.658,58.999,258.358,61.801,256,61.801v407.791
	c21.283-0.212,40.357-12.743,49.2-31.694l167.907,31.43c9.118,1.78,18.007-5.279,18.007-14.945V121.48
	C491.114,114.24,486.014,108.005,478.916,106.575z"/>
<path style="fill:#FFDE55;" d="M512,77.01v311.166c0,10.408-10.32,17.866-20.329,14.326c-0.882-0.314-52.987-18.514-115.281-18.514
	c-62.507,0-114.764,18.331-115.281,18.514c-3.445,1.15-6.768,1.203-10.23,0c-0.872-0.314-52.976-18.514-115.27-18.514
	c-62.517,0-114.764,18.331-115.291,18.514C10.359,406.039,0,398.598,0,388.176V77.01c0-6.448,4.056-12.187,10.129-14.337
	c2.332-0.831,57.934-20.278,125.48-20.278c56.687,0,104.959,13.698,120.391,18.595c15.432-4.897,63.703-18.595,120.391-18.595
	c67.546,0,123.148,19.447,125.48,20.278C507.944,64.823,512,70.562,512,77.01z"/>
<path style="fill:#FFD422;" d="M512,77.01v311.166c0,10.408-10.32,17.866-20.329,14.326c-0.882-0.314-52.987-18.514-115.281-18.514
	c-62.507,0-114.764,18.331-115.281,18.514c-1.702,0.568-3.287,0.882-5.11,0.882V60.99c15.432-4.897,63.703-18.595,120.391-18.595
	c67.546,0,123.148,19.447,125.48,20.278C507.944,64.823,512,70.562,512,77.01z"/>
<g>
	<path style="fill:#FFF0B3;" d="M440.49,140.987c-2.231,6.205-8.081,10.078-14.316,10.078c-1.703,0-3.437-0.294-5.14-0.902
		c-14.337-5.151-29.494-7.726-44.642-7.716c-13.576,0.01-27.142,2.099-40.13,6.276l-4.999,1.602c-8,2.575-16.557-1.825-19.132-9.825
		c-2.565-8,1.835-16.567,9.825-19.132l4.999-1.602c15.999-5.14,32.719-7.706,49.438-7.716c18.646-0.02,37.281,3.153,54.923,9.48
		C439.222,124.369,443.328,133.079,440.49,140.987z"/>
	<path style="fill:#FFF0B3;" d="M440.49,224.117c-2.231,6.205-8.081,10.068-14.316,10.068c-1.703,0-3.437-0.284-5.14-0.892
		c-14.337-5.151-29.494-7.726-44.642-7.716c-13.576,0.01-27.142,2.099-40.13,6.276l-4.999,1.602c-8,2.575-16.557-1.835-19.132-9.825
		c-2.565-8,1.835-16.567,9.835-19.132l4.988-1.602c15.999-5.14,32.719-7.716,49.438-7.726c18.646-0.01,37.291,3.153,54.923,9.49
		C439.222,207.499,443.328,216.208,440.49,224.117z"/>
	<path style="fill:#FFF0B3;" d="M440.49,307.247c-2.231,6.205-8.081,10.068-14.316,10.068c-1.703,0-3.437-0.284-5.14-0.902
		c-14.337-5.151-29.494-7.716-44.642-7.706c-13.576,0.01-27.142,2.099-40.13,6.276l-4.999,1.602c-8,2.565-16.557-1.835-19.132-9.835
		c-2.565-7.99,1.835-16.557,9.835-19.122l4.988-1.612c15.999-5.14,32.719-7.706,49.438-7.716c18.646-0.01,37.281,3.153,54.923,9.49
		C439.222,290.629,443.328,299.338,440.49,307.247z"/>
</g>
<g>
	<path style="fill:#FFF4CA;" d="M199.698,140.987c-2.22,6.205-8.071,10.078-14.306,10.078c-1.714,0-3.447-0.294-5.14-0.902
		c-14.337-5.151-29.484-7.726-44.642-7.716c-13.566,0.01-27.152,2.099-40.14,6.276l-4.988,1.602c-8,2.575-16.567-1.825-19.132-9.825
		c-2.575-8,1.825-16.567,9.825-19.132l4.999-1.602c15.999-5.14,32.729-7.706,49.438-7.716c18.646-0.02,37.281,3.153,54.923,9.48
		C198.431,124.369,202.537,133.079,199.698,140.987z"/>
	<path style="fill:#FFF4CA;" d="M199.698,224.117c-2.22,6.205-8.071,10.068-14.306,10.068c-1.714,0-3.447-0.284-5.14-0.892
		c-14.337-5.151-29.484-7.726-44.642-7.716c-13.566,0.01-27.152,2.099-40.14,6.276l-4.999,1.602c-8,2.575-16.557-1.835-19.122-9.825
		c-2.575-8,1.825-16.567,9.825-19.132l4.999-1.602c15.999-5.14,32.729-7.716,49.438-7.726c18.646-0.01,37.281,3.153,54.923,9.49
		C198.431,207.499,202.537,216.208,199.698,224.117z"/>
	<path style="fill:#FFF4CA;" d="M199.698,307.247c-2.22,6.205-8.071,10.068-14.306,10.068c-1.714,0-3.447-0.284-5.14-0.902
		c-14.337-5.14-29.484-7.716-44.642-7.706c-13.566,0.01-27.152,2.099-40.14,6.276l-4.999,1.602c-8,2.565-16.557-1.835-19.122-9.835
		c-2.575-7.99,1.825-16.557,9.825-19.122l4.999-1.612c15.999-5.14,32.708-7.706,49.438-7.716c18.646-0.01,37.281,3.153,54.923,9.49
		C198.431,290.629,202.537,299.338,199.698,307.247z"/>
</g>
<g>
</g>
<g>
</g>
<g>
</g>
<g>
</g>
<g>
</g>
<g>
</g>
<g>
</g>
<g>
</g>
<g>
</g>
<g>
</g>
<g>
</g>
<g>
</g>
<g>
</g>
<g>
</g>
<g>
</g>
</svg>
